HIERARCHY
ROOT Hips
{
    OFFSET 0.000000 0.000000 0.000000
    CHANNELS 6 Xposition Yposition Zposition Zrotation Xrotation Yrotation
    JOINT Spine
    {
        OFFSET -0.000000 7.246840 0.000000
        CHANNELS 3 Zrotation Xrotation Yrotation
        JOINT Spine1
        {
            OFFSET -0.000000 20.289354 0.000000
            CHANNELS 3 Zrotation Xrotation Yrotation
            JOINT Neck
            {
                OFFSET -0.000000 20.206032 1.836912
                CHANNELS 3 Zrotation Xrotation Yrotation
                JOINT Head
                {
                    OFFSET -0.000000 12.372654 -1.767522
                    CHANNELS 3 Zrotation Xrotation Yrotation
                    End Site
                    {
                        OFFSET -0.000000 22.094025 0.000000
                    }
                }
            }
            JOINT LeftShoulder
            {
                OFFSET 3.465871 17.201674 -0.568930
                CHANNELS 3 Zrotation Xrotation Yrotation
                JOINT LeftArm
                {
                    OFFSET 14.070313 0.000000 0.000000
                    CHANNELS 3 Zrotation Xrotation Yrotation
                    JOINT LeftForeArm
                    {
                        OFFSET 26.549477 0.000000 0.000000
                        CHANNELS 3 Zrotation Xrotation Yrotation
                        JOINT LeftHand
                        {
                            OFFSET 18.880413 0.000000 0.000000
                            CHANNELS 3 Zrotation Xrotation Yrotation
                            End Site
                            {
                                OFFSET 13.256415 0.000000 0.000000
                            }
                        }
                    }
                }
            }
            JOINT RightShoulder
            {
                OFFSET -3.526370 17.201674 -0.568930
                CHANNELS 3 Zrotation Xrotation Yrotation
                JOINT RightArm
                {
                    OFFSET -14.070313 0.000000 0.000000
                    CHANNELS 3 Zrotation Xrotation Yrotation
                    JOINT RightForeArm
                    {
                        OFFSET -26.549477 0.000000 0.000000
                        CHANNELS 3 Zrotation Xrotation Yrotation
                        JOINT RightHand
                        {
                            OFFSET -18.880413 0.000000 0.000000
                            CHANNELS 3 Zrotation Xrotation Yrotation
                            End Site
                            {
                                OFFSET -13.256415 0.000000 0.000000
                            }
                        }
                    }
                }
            }
        }
    }
    JOINT LeftUpLeg
    {
        OFFSET 8.837609 0.000000 0.000000
        CHANNELS 3 Zrotation Xrotation Yrotation
        JOINT LeftLeg
        {
            OFFSET -0.000000 -41.345005 0.000000
            CHANNELS 3 Zrotation Xrotation Yrotation
            JOINT LeftFoot
            {
                OFFSET -0.000000 -35.500874 0.000000
                CHANNELS 3 Zrotation Xrotation Yrotation
                JOINT LeftToeBase
                {
                    OFFSET -0.000000 -5.744446 13.256415
                    CHANNELS 3 Zrotation Xrotation Yrotation
                    End Site
                    {
                        OFFSET -0.000000 0.000000 3.535044
                    }
                }
            }
        }
    }
    JOINT RightUpLeg
    {
        OFFSET -8.837609 0.000000 0.000000
        CHANNELS 3 Zrotation Xrotation Yrotation
        JOINT RightLeg
        {
            OFFSET -0.000000 -41.345005 0.000000
            CHANNELS 3 Zrotation Xrotation Yrotation
            JOINT RightFoot
            {
                OFFSET -0.000000 -35.500874 0.000000
                CHANNELS 3 Zrotation Xrotation Yrotation
                JOINT RightToeBase
                {
                    OFFSET -0.000000 -5.744446 13.256415
                    CHANNELS 3 Zrotation Xrotation Yrotation
                    End Site
                    {
                        OFFSET -0.000000 0.000000 3.535044
                    }
                }
            }
        }
    }
}
MOTION
Frames:    10
Frame Time:    0.010000
6.478495    82.722290    -70.752663    2.737195    2.420441    0.966601    -4.784711    -13.083722    -1.372736    1.568080    1.402268    -0.842960    0.495062    34.088902    -2.305649    1.181421    -10.963711    -2.032087    19.988689    2.650753    7.239452    -27.476271    9.529008    -10.205215    7.315359    -8.052304    -9.618944    -35.491219    -7.258310    -0.577443    -16.712580    2.632184    10.453959    14.642475    6.059761    8.459946    -4.321856    -7.140440    4.881299    12.955555    -5.404655    13.690592    -1.661709    7.827237    0.574182    -2.095711    -8.640518    -4.362942    3.255378    2.070515    -2.459268    -0.120731    -2.641544    0.171776    -5.899478    2.771865    -0.986708    4.285257    0.766514    4.908563    2.838551    -4.876757    -7.966575    -0.643578    -4.699129    1.217283    
6.475456    82.723167    -70.745476    2.743133    2.428636    0.964922    -4.803487    -13.097157    -1.378843    1.576938    1.418563    -0.846690    0.480902    34.088142    -2.304695    1.195284    -10.977535    -2.030199    19.974581    2.665333    7.248954    -27.489939    9.442121    -10.204285    7.487216    -7.796710    -9.436555    -36.044201    -6.992245    -0.591314    -16.728880    2.613884    10.450906    14.655688    6.111660    8.471081    -4.329967    -7.147849    4.878207    12.921243    -5.415444    13.695673    -1.660621    7.817395    0.530925    -2.105397    -8.627004    -4.293861    3.227995    2.083658    -2.478467    -0.125221    -2.683681    0.178213    -5.907134    2.769433    -0.976929    4.302573    0.764684    4.869728    2.829798    -4.855434    -7.912670    -0.610603    -4.740751    1.155490    
6.470797    82.723824    -70.737709    2.739107    2.435484    0.954385    -4.809167    -13.105557    -1.380446    1.580740    1.425250    -0.847344    0.485088    34.074169    -2.302717    1.184700    -10.959116    -2.030142    19.973618    2.664310    7.269010    -27.510841    9.418963    -10.211877    7.503966    -7.781220    -9.418595    -36.060749    -6.973031    -0.601842    -16.718840    2.602080    10.448288    14.644438    6.125396    8.480446    -4.339409    -7.149124    4.880785    12.913774    -5.415533    13.709681    -1.668976    7.826314    0.590334    -2.110555    -8.630988    -4.231127    3.318061    2.050229    -2.518778    -0.093313    -2.612826    0.132742    -5.900907    2.764313    -0.969901    4.299822    0.761829    4.875486    2.851438    -4.870949    -7.924821    -0.630294    -4.759727    1.193020    
6.464298    82.723488    -70.730362    2.736991    2.438892    0.946073    -4.830135    -13.113062    -1.382886    1.605168    1.436386    -0.847591    0.507331    34.086273    -2.308527    1.144809    -10.982423    -2.041342    19.961493    2.656333    7.278554    -27.525572    9.383478    -10.210880    7.499582    -7.749625    -9.411046    -36.031521    -6.948083    -0.584223    -16.726686    2.572959    10.453147    14.651088    6.166943    8.470036    -4.345663    -7.158157    4.886947    12.898567    -5.428260    13.689150    -1.664217    7.830954    0.577470    -2.088484    -8.650887    -4.247967    3.290895    2.076552    -2.537281    -0.118073    -2.659883    0.168014    -5.895386    2.761500    -0.956758    4.307555    0.772501    4.864748    2.833342    -4.858083    -7.915845    -0.624615    -4.724553    1.181775    
6.461935    82.724068    -70.722443    2.733212    2.439717    0.933789    -4.832171    -13.116049    -1.380936    1.606287    1.443230    -0.845375    0.490581    34.089592    -2.306931    1.169195    -10.988987    -2.036832    19.947239    2.669667    7.287563    -27.522297    9.366121    -10.225525    7.512990    -7.719950    -9.380629    -36.074306    -6.917761    -0.588136    -16.733006    2.578450    10.466325    14.667679    6.141060    8.460599    -4.360167    -7.165230    4.886398    12.906826    -5.431701    13.707140    -1.651762    7.829447    0.542030    -2.092120    -8.642693    -4.309704    3.276204    2.084363    -2.444415    -0.133411    -2.678195    0.189861    -5.892863    2.765301    -0.947837    4.305652    0.768470    4.893025    2.802156    -4.883007    -7.966992    -0.617052    -4.737183    1.167643    
6.456398    82.722260    -70.716782    2.729440    2.439810    0.921520    -4.833360    -13.114083    -1.377126    1.592799    1.448046    -0.841428    0.497473    34.101540    -2.298465    1.185262    -11.008930    -2.022744    19.965996    2.672710    7.285941    -27.543373    9.353207    -10.223318    7.509850    -7.921164    -9.383064    -35.964546    -7.198536    -0.344485    -16.711414    2.570561    10.472163    14.663547    6.157307    8.448528    -4.360123    -7.167147    4.889918    12.908494    -5.432062    13.717925    -1.642972    7.830058    0.540816    -2.124309    -8.610384    -4.169404    3.316665    2.040884    -2.483378    -0.081179    -2.626679    0.115491    -5.884595    2.762991    -0.941739    4.311580    0.777930    4.878419    2.824368    -4.879968    -7.933278    -0.645239    -4.756133    1.221254    
6.451952    82.722504    -70.710953    2.732447    2.442317    0.906441    -4.842889    -13.118478    -1.373756    1.582709    1.460081    -0.836753    0.515987    34.106003    -2.301306    1.187563    -11.023455    -2.021674    19.980581    2.672583    7.290341    -27.548704    9.370659    -10.226043    7.522472    -7.893026    -9.357712    -36.024284    -7.173267    -0.336762    -16.706760    2.580812    10.485763    14.681940    6.099365    8.434626    -4.352563    -7.147272    4.897201    12.913369    -5.412910    13.706207    -1.645145    7.832712    0.551323    -2.086646    -8.635422    -4.353604    3.261806    2.076412    -2.408713    -0.151287    -2.688029    0.215314    -5.884726    2.760405    -0.935701    4.307027    0.778449    4.879959    2.828304    -4.890587    -7.921225    -0.630589    -4.745990    1.193385    
6.447395    82.721031    -70.703873    2.726222    2.439384    0.887576    -4.823269    -13.109387    -1.362918    1.550519    1.456879    -0.828070    0.497120    34.084938    -2.299536    1.232585    -10.990221    -2.013043    19.994551    2.666379    7.295226    -27.535744    9.379090    -10.219904    7.483208    -7.895582    -9.361406    -36.011940    -7.184247    -0.320005    -16.706707    2.569935    10.495900    14.714191    6.093180    8.414548    -4.344184    -7.141270    4.904817    12.905836    -5.406539    13.717834    -1.627912    7.837189    0.525832    -2.095915    -8.620997    -4.370521    3.264819    2.049486    -2.350753    -0.137179    -2.665251    0.195208    -5.872950    2.761592    -0.940648    4.300217    0.783383    4.883795    2.821861    -4.873233    -7.910501    -0.612347    -4.757678    1.159024    
6.443747    82.721313    -70.699593    2.726692    2.446078    0.867113    -4.832819    -13.122347    -1.358680    1.554553    1.480674    -0.822619    0.496058    34.092575    -2.302218    1.236427    -11.014457    -2.014808    19.995911    2.693158    7.299037    -27.547762    9.348203    -10.222868    7.242357    -8.203299    -9.550611    -35.287426    -7.498285    -0.332976    -16.706499    2.588631    10.505363    14.717902    6.044290    8.412900    -4.326369    -7.130743    4.900323    12.884577    -5.395991    13.748587    -1.628300    7.834556    0.518076    -2.116700    -8.612848    -4.191236    3.301962    2.036491    -2.440651    -0.106481    -2.659078    0.151518    -5.868162    2.748957    -0.934716    4.286607    0.792129    4.912510    2.835985    -4.875472    -7.921308    -0.616441    -4.748307    1.166643    
6.440654    82.721375    -70.692780    2.724291    2.444200    0.851619    -4.842380    -13.120121    -1.355592    1.566069    1.492528    -0.818772    0.487925    34.084980    -2.295906    1.245200    -11.013232    -2.007669    20.002569    2.672280    7.324002    -27.576712    9.361074    -10.227272    7.240409    -8.246022    -9.542008    -35.263813    -7.533653    -0.359008    -16.722128    2.561565    10.515988    14.748806    6.061606    8.396028    -4.315276    -7.136175    4.890507    12.869175    -5.402966    13.758918    -1.619716    7.843743    0.504138    -2.119233    -8.614921    -4.210136    3.260324    2.050241    -2.406989    -0.116048    -2.665510    0.165138    -5.866068    2.750565    -0.930767    4.297694    0.797067    4.898523    2.817114    -4.866392    -7.896329    -0.637485    -4.757300    1.206596    
